<svg width="14" height="14" viewBox="0 0 24 24" fill="none" xmlns="http://www.w3.org/2000/svg">
<path d="M8.62494 21.689C15.0287 24.152 19.0515 16.3525 22.746 14.0538" stroke="white"/>
<path d="M21.3503 1L11.2521 10.3593M11.2521 10.3593C7.37268 14.2708 3.94531 17.3725 1.56443 20.2112C-0.816437 23.0499 5.01262 23.5772 6.4904 22.9205C7.96818 22.2637 13.2225 18.1587 14.2898 15.3673C15.3571 12.576 12.6068 10.4824 12.1552 10.0309C11.7037 9.57935 11.2521 10.3593 11.2521 10.3593Z" stroke="white"/>
<path d="M7.5 9.33158C7.5 10.4306 6.40252 11.5 5 11.5C3.60588 11.5 2.5 10.4046 2.5 9.29795C2.5 9.07213 2.609 8.74121 2.84869 8.30132C3.08122 7.87455 3.40107 7.40752 3.74886 6.92186C3.8456 6.78677 3.94499 6.6496 4.04474 6.51193C4.29612 6.16499 4.54983 5.81482 4.76946 5.48656C4.84844 5.3685 4.92571 5.24946 4.99907 5.1305C5.07269 5.25067 5.15029 5.37103 5.22964 5.49047C5.44819 5.81941 5.70055 6.17068 5.95084 6.51906C6.05167 6.6594 6.15215 6.79927 6.24996 6.93702C6.59773 7.42684 6.91785 7.89825 7.15062 8.32842C7.39064 8.77196 7.5 9.10524 7.5 9.33158Z" fill="white" stroke="white"/>
</svg>
